<svg xmlns="http://www.w3.org/2000/svg" xmlns:xlink="http://www.w3.org/1999/xlink" version="1.1" id="Layer_1" x="0px" y="0px" viewBox="0 0 1537.62 990.24" style="enable-background:new 0 0 1537.62 990.24;" xml:space="preserve">
<style xmlns="http://www.w3.org/2000/svg" type="text/css">
	.st0{fill:#D3D3D3;}
	.st1{fill:#9E9E9E;}
	.st2{fill:#084970;}
	.st3{fill:#e12021;}
	.st4{fill:#2A94F4;}
	.st5{fill:#0E538C;}
	.st6{fill:#FEE3CA;}
	.st7{opacity:0.16;fill:#020202;}
	.st8{fill:#F8CAA4;}
</style>
<g xmlns="http://www.w3.org/2000/svg">
	<g>
		<path class="st0" d="M1374.53,793.05l-1.97-261.83l-129.83,0.02c0,0,0,0,0,0c0,0,0,0-0.01,0l-11.99,0v-10.14    c0-62.95-51.03-113.98-113.98-113.98H726.78H605.14h-93.55c-61.09,0-110.61,49.52-110.61,110.61v4.38l-99.91-1.08l25.66,344.35    l70.76-107.8l98.22-95.44h651.35v90.52h36.19l-8.61,40.16L1374.53,793.05z"/>
		<path class="st1" d="M396.32,757.21V589.97c0-38.41-45.66-69.41-101.54-68.95l0,0l0,0.04c-51.13,1.06-92.06,27.39-92.06,59.73    c0,32.86,12.46,68.43,64.75,68.67h21.55v124.49L396.32,757.21z"/>
		<path class="st1" d="M1444.36,589.24c0-30.37-26.42-57.39-71.22-58.39l0-0.04h0c-48.96-0.44-88.97,28.68-88.97,64.76v157.08    l92.48,0.21v-68.99l0.48-41.05C1422.94,642.59,1444.36,620.1,1444.36,589.24z"/>
		<path class="st0" d="M288.86,776.38l1088-1.91l0.09,47.31c0.02,23.96-13.23,43.39-45.72,43.39l-988.92-0.25    c-43.12,0-52.1-17.97-52.1-40.43L288.86,776.38z"/>
		<path class="st1" d="M1377.07,730.2l-0.1-68.5v-38.41c0-25.69-20.83-46.52-46.52-46.52h0c-25.69,0-46.52,20.83-46.52,46.52v32.44    l-889-4.38v-28.07c0-25.69-20.83-46.52-46.52-46.52h-12.87c-25.69,0-46.52,20.83-46.52,46.52v27.54l-0.16,0v79.37    c0,1.12,0.06,2.22,0.16,3.32v109.64c0,25.69,20.83,46.52,46.52,46.52h12.87c25.69,0,46.52-20.83,46.52-46.52v-62.32h889v62.32    c0,25.69,20.83,46.52,46.52,46.52h0c25.69,0,46.52-20.83,46.52-46.52V733C1377.03,732.07,1377.07,731.14,1377.07,730.2z"/>
	</g>
	<g>
		<path class="st2" d="M1115.24,269.83H743.69c-3.01,0-5.46-2.46-5.46-5.46l0,0c0-3.01,2.46-5.46,5.46-5.46h371.55    c3.01,0,5.46,2.46,5.46,5.46l0,0C1120.7,267.37,1118.24,269.83,1115.24,269.83z"/>
		<rect x="858.14" y="139.5" class="st2" width="40.07" height="120.21"/>
		<rect x="898.57" y="151.34" class="st3" width="18.87" height="108.37"/>
		<rect x="839.27" y="151.34" class="st4" width="18.87" height="108.37"/>
		<rect x="916.42" y="155.32" class="st4" width="22.68" height="104.39"/>
		<rect x="803.51" y="148.51" class="st3" width="35.76" height="111.2"/>
		<rect x="767.76" y="139.5" class="st2" width="35.76" height="120.21"/>
		
			<rect x="957.7" y="155.32" transform="matrix(0.9121 -0.41 0.41 0.9121 0.1093 415.542)" class="st3" width="22.68" height="104.39"/>
		<g>
			<g>
				<path class="st5" d="M1016.24,211.89c0,0-14.14-21.2-11.11-36.22c3.03-15.02-3.03-20.32,0-34.45      c3.03-14.13,12.12-35.33,12.12-35.33s-5.05,32.68-4.04,40.63c1.01,7.95,3.03,8.83,1.01,17.67s3.03,20.32,4.04,28.27      c1.01,7.95-1.01,17.67-1.01,17.67"/>
				<path class="st5" d="M1023.12,207.52c0,0-5.57-19.67-3.71-36.06c1.86-16.39,2.78-18.58,0.93-33.87      c-1.86-15.3,3.71-31.69,3.71-31.69s0-22.95,1.86-26.23c1.86-3.28,13.92,32.78,8.35,44.8c-5.57,12.02,5.57,20.76,0,40.43      c-5.57,19.67,1.86,27.32-1.86,34.97C1028.69,207.52,1023.12,207.52,1023.12,207.52z"/>
				<path class="st5" d="M1047.89,210.79c0,0-7.65-16.39-4.37-33.87s3.28-14.21,4.37-28.41c1.09-14.21,12.02-21.85,12.02-32.78      c0-10.93,5.46,0,2.19,22.95c-3.28,22.95-7.65,24.04-5.46,42.62S1047.89,210.79,1047.89,210.79z"/>
				<path class="st5" d="M1030.4,209.7c0,0,4.37-31.69-1.09-54.64c-5.46-22.95,12.02-30.6,9.83-42.62      c-2.19-12.02,4.37-25.13,4.37-25.13s-1.09,24.04,3.28,34.97s-4.37,14.21-4.37,27.32c0,13.11,4.37,27.32,0,42.62      S1030.4,209.7,1030.4,209.7z"/>
			</g>
			<path class="st3" d="M1040.17,257.67h-14.44c-12.91,0-23.38-10.47-23.38-23.38v-28.23h61.19v28.23     C1063.55,247.2,1053.08,257.67,1040.17,257.67z"/>
		</g>
	</g>
	<g>
		<path class="st2" d="M219.27,811.54c1.4-15.11,7.19-31.56,22.28-45.23c39.47-35.78,70.8-45.53,76.05-102.09    c5.24-56.56-16.93-124.25-14.09-140.72c0,0-20.89,3.19-29.08,45.17c-8.19,41.98-12.97,72.8-17.66,97.19    c-4.68,24.38-23.09,24.01-31.98,44.29c-7.46,17-8.3,51.13-7.35,68c0.31,5.48-0.05,10.97-1.13,16.35    c-0.99,4.89-2.09,10.82-2.57,14.94c-0.11,0.92-0.07,2.25,0.07,3.89L219.27,811.54z"/>
		<path class="st5" d="M225.7,826.25c4.24-9.78,11.7-19.49,24.76-25.32c34.17-15.25,57.22-14.91,73.08-51.52    c15.86-36.61,15.86-86.64,21.36-97.01c0,0-14.64-2.44-29.29,23.8c-14.64,26.24-24.58,45.76-33.03,61.01    c-8.46,15.25-20.66,10.98-31.03,22.58c-8.69,9.72-16.72,32.32-19.77,43.79c-0.99,3.73-2.43,7.31-4.33,10.67    c-1.73,3.05-3.76,6.76-4.98,9.41c-0.27,0.59-0.54,1.48-0.81,2.61H225.7z"/>
		<path class="st2" d="M129.29,652.74c-2.44,31.32,17.49,28.88,18.3,48.81c0.81,19.93,26.85,53.69,38.91,77.69    c6.27,12.48,8.59,31.57,9.37,47.01h9.69c-3.75-39.08-19.61-66.29-29.09-88.09c-12.2-28.07-14.03-40.88-3.66-62.85    c10.37-21.97-4.88-78.71,9.89-104.01c14.77-25.3,7.2-65,3.8-80.26c-3.4-15.25,0.35-25.63,3.4-41.71    c3.05-16.08-3.4-39.44-3.4-39.44c-0.55,19.93-15.72,47.19-26.7,64.68c-10.98,17.49-31.73,65.08-29.29,86.64    c2.44,21.56,1.22,23.19,1.22,23.19C124,613.28,131.73,621.42,129.29,652.74z"/>
		<path class="st5" d="M187.43,800.8c1.25,3.74,5.24,13.29,8.9,25.45h5.94c-2.7-15.49-7.37-33.46-15.25-43.76    c-15.86-20.75-47.59-29.69-51.25-44.74c-3.66-15.05,0.41-60.2-22.78-85.42c0,0,3.25,28.08,0,35.6    c-3.25,7.52-30.91,42.5-14.64,71.79c16.27,29.29,52.88,25.63,64.27,32.13C174.01,798.36,185.4,794.7,187.43,800.8z"/>
		<path class="st5" d="M172.79,665.73c-0.41,30.1,23.19,41.49,22.78,58.17c-0.41,16.68,4.88,34.58,9.36,48    c2.83,8.5,1.26,32.15,0.76,54.36h6.55c1.65-16.32,3.46-39.86,2.86-50.29c-0.81-14.24,5.69-25.63,6.51-50.44    c0.81-24.81,6.1-47.19-4.88-78.51c-10.98-31.32-8.95-68.74-54.91-103.32c0,0-8.14,36.61-2.03,56.54    C165.87,620.17,173.19,635.63,172.79,665.73z"/>
		<path class="st3" d="M219.35,800.57h-4.39H183.9c-18.37,0-31.92,17.15-27.69,35.02l16.61,70.06c0.71,3.01,3.4,5.14,6.49,5.14    h35.65h4.39H255c3.09,0,5.78-2.13,6.49-5.14l16.61-70.04c4.24-17.88-9.32-35.04-27.7-35.04H219.35z"/>
	</g>
	<g>
		<path class="st6" d="M976.83,420c0.71-0.72,6.14-4.25,7.6-5.7c0,0-8.58-1.55-11.41-1.12c-1.62,0.25-6.04,2.57-6.04,2.57    l-9.77,0.81c0,0,6.16-10.17,13.29-13.79c8.35-4.23,25.4-2,25.4-2s66.42-10.87,103.57-9.95c9.97,0.25,80.85-11.31,101.27-7.21    c10.76,2.16,20.52,3.86,26.79,4.89c3.83,0.63,7.38-2.14,7.72-6l0.01-0.07c1.16-13.39,2.83-20.89,2.83-20.89l24.93-12.06    c5.15,2.74,9.97,5.3,12.52,6.66c-0.12,1.38-0.21,2.74-0.25,4.07c-0.23,6.84,0.5,12.98,1.71,18.33c2.23,9.88,9.91,17.6,19.7,20.2    l0.12,0.03c-18.69,16.09-113.78,44.13-115.39,35.91c-2.17-11.06-175.79-21.63-175.79-21.63s-11.52,0.25-14.64,4.85    c-1.85,2.73-10.14,3.7-13.55,5.29C975.68,423.99,975.18,421.68,976.83,420z"/>
		<path class="st5" d="M912.55,818.1c0,0-19.32,34.85-27.88,38.78c-6.8,3.12-25.2,6.21-35.45,14.1c-11.89,9.15,8.7,8.67,13.22,8.67    c0,0,23.03-2.74,33.95-2.51c6.29,0.13,25.02,2.51,25.02,2.51c14.76,0,26-13.4,23.24-27.9c-0.03-0.13-0.05-0.27-0.08-0.4    c-2.67-13.47-4.75-30.84-4.75-30.84L912.55,818.1z"/>
		<path class="st3" d="M1153.35,404.15c0.41,9.06,2.93,18.99,11,24.23c12.75,8.27,9.52,29.85,9.44,38.32l54.56-78.13    c0,0-15.13-3.87-33.22-5.85c-11.02-1.21-39.99,2.11-39.99,2.11S1152.89,393.94,1153.35,404.15z"/>
		<path class="st5" d="M996.95,831.74c0,0-19.26,21.21-27.82,25.14c-6.11,2.81-22.58,4.44-32.38,11.56    c-10.35,7.52-2.42,11.21,3.59,11.21c0,0,27.52,2.19,45.05-2.75c4.78-1.35,17.86,1.33,22.51,2.37c1.41,0.31,10.4,1.05,11.84,0.87    c10.68-1.37,11.18-11.61,10.17-22.64c-0.19-2.04-0.47-4.11-0.87-6.15c-2.67-13.47-4.28-25.99-4.28-25.99L996.95,831.74z"/>
		<path class="st2" d="M902.06,820.07c0,0,6.96,4.86,13.07,6.9c9.63,3.21,27.58,1.72,27.58,1.72s45.83-88.91,55.5-111.4    c9.17-21.32,16.84-68.07,16.84-68.07c7-0.38,59.36,7.04,105.36,2.06c24.47-2.64,45.17-8.68,52.18-21.04    c20.21-35.6-44.35-75.3-44.35-75.3s-126.24,22.76-153.98,42.9C947.97,616.94,902.06,820.07,902.06,820.07z"/>
		<path class="st2" d="M990.08,830.69c0,0,9.81,5.14,16.17,6.22c11.55,1.95,23.99-1.91,23.99-1.91s7.05-42.59,35.95-110.74    c7.25-17.1,11.76-48.56,12.74-49c0,0,152.29-2.25,170.63-37.71c2.97-5.75,6.29-21.97,5.92-27.24    c-1.92-28.05-38.34-38.87-38.34-38.87s-164.61,29.11-192.87,48.52C996.01,639.38,990.08,830.69,990.08,830.69z"/>
		<path class="st3" d="M1331.27,466.71c-0.01,0.62-0.32,2.46-0.9,5.23c-1.46,7.11-4.63,20.37-8.81,35.11    c-4.06,14.31-9.08,30.01-14.43,42.78c-13.43,32.04-41.61,67.95-51.41,64.99c-12.83-3.87-38.18-13.67-84.45-21.68    c-36.73-6.36-46.71-19.9-56.3-37.02c-2.64-4.71,23.84-7.16,43.15-51.66c12.74-29.36,23.31-69.8,23.31-69.8l46.93-46.08    c-0.23,0.38-7.4,13.41,10.04,20.98c17.7,7.68,50.23-14.43,50.23-14.43C1288.64,395.28,1332.43,409.11,1331.27,466.71z"/>
		<path class="st7" d="M1238.08,361.52c0,0-1.67,7.51-2.83,20.9c21.16-0.69,37.92-22.63,38.04-24.01    c-2.55-1.36-5.12-6.21-10.27-8.95L1238.08,361.52z"/>
		<path class="st6" d="M1233.15,375c0,0,44.52-1.27,43.3-28.98c-1.22-27.71,3.71-46.54-24.77-46.9    c-28.48-0.36-33.53,10.46-35.38,19.81C1214.47,328.27,1221.54,374.62,1233.15,375z"/>
		<path class="st5" d="M1274.05,357.22c0,0,1.78-9.21-3.21-15.31c0,0,3.27-9.02-0.19-11.06c-3.47-2.04-5.31,5.67-6.83,4.21    c-1.52-1.46-8.23-8.32-10.26-17.35c-2.04-9.03-32.93-2.69-36.58-1.61c-0.61,0.18-1.4,0.13-2.3-0.1    c-7.74-1.98-10.03-12.02-4.05-17.32c0.36-0.32,0.71-0.64,1.01-0.95c3.27-3.3,26-25.47,52.01-14.7    c26.01,10.77,27.91,24.15,24.86,34.97C1285.45,328.83,1285.61,355.04,1274.05,357.22z"/>
		<path class="st8" d="M1330.37,471.94c-1.46,7.11-4.63,20.37-8.81,35.11c-24.9,26.51-84.2,58.49-84.2,58.49l51.86-67.74l26.81-30.7    C1316.03,467.1,1325.23,466.45,1330.37,471.94z"/>
		<path class="st6" d="M1319.1,420.44c-17.56-12.18-77.05,141.45-77.05,141.45c-21.18,2.64-87.2,11.27-100.89,11.46    c-5.56,0.08-19.44-2.73-25.06-2.9c-5.76-0.17-10.89-0.1-13.48,0.49c-0.95,0.22-25.43,11.6-27.09,13.81    c-2.05,2.75-7.75,9.71-5.43,12.37c2.32,2.65,12.6-8.83,12.6-8.83l5.72-3.65c-6.09,7.43-19.13,17.59-15.64,20.67    c3.41,3,14.82-7.17,23.05-14.15c-6.6,7.28-13.51,19.93-10.29,21.57c2.89,1.48,10.67-13.15,22.78-18.11    c4.49-1.84,10.92,1.83,15.03,2.02c3.02,0.14,7.76,0.57,10.37-0.31l13.42-4.49c5.12-0.01,10.83,0.14,16.17,0.64    c6.2,0.57,15.25,0.56,23.22,1.48c45.89,5.31,57.29,6.87,70.9,9.81c13.62,2.95,28.8-20.36,44.6-59.43    C1319.62,500.85,1351.51,442.92,1319.1,420.44z"/>
		<path class="st3" d="M1251.39,480.63c14.84,8.28,25.74,14.89,48.45,14.84c17.1-0.04,31.19-3.38,31.19-3.38    s17.56-71.41-15.25-86.11c-11.3-5.06-27.15-10.86-27.15-10.86S1224.82,465.81,1251.39,480.63z"/>
	</g>
	<g>
		<path class="st5" d="M819.69,341.87c0,0,18.08-3.41,26.29,15.68c8.21,19.09,2.52,16.48,6.48,26c3.96,9.52,18.26,10.01,16.08,23.43    c-2.18,13.42-8.79,14.48-8.79,14.48s3.97,11.36-4.04,21.07c-8.01,9.71-25.13,16.41-37.95,12.8c0,0-21.37,7.56-40.22-0.72    c-18.85-8.28-11.99-7.17-20.04-8.48c-8.05-1.31-28.02-15.89-21.82-31.4c0,0-10.7-17.91,4.27-28.68    c14.96-10.77,19.52-23.45,29.79-39.52C780.01,330.44,811.43,336.24,819.69,341.87z"/>
		<path class="st6" d="M814.42,499.1c0,0,14.83,85.81,31.8,84.4c7.98-0.66,14.73-4.51,9.43-34.02    c-4.52-25.18-11.58-62.06-20.68-63.54C817.8,483.16,812.62,489.59,814.42,499.1z"/>
		<path class="st4" d="M899.75,765.33c0,0,7.48,14.15,15.86,20.62c8.38,6.47,21.16,12.1,18.37,15.78    c-2.78,3.68-26.55-1.07-34.86-5.67c-8.31-4.61-23.81-1.73-26.05-7.36c-2.24-5.63,11.8-25.53,11.8-25.53L899.75,765.33z"/>
		<path class="st4" d="M831.5,760.67c0,0-0.42,15.4,3.55,24.78c3.96,9.38,12.02,20.14,7.94,21.91    c-4.07,1.77-21.75-13.44-26.54-21.23c-4.79-7.79-19.14-12.71-18.36-18.48c0.78-5.78,21.96-15.82,21.96-15.82L831.5,760.67z"/>
		<path class="st3" d="M787.73,585.38c0,0,95.68,10.53,114.23,39.23c4.06,6.28,4.95,16.83,0.11,24.82    c-7.99,13.19-25.54-3.25-40.83-0.52c-28.3,5.05-150.81,19.17-135.88-18.64C740.28,592.47,787.73,585.38,787.73,585.38z"/>
		<path class="st3" d="M902.07,649.43l-68.32,112.78c0,0-6.03,2.33-12.8-1.09c-7.51-3.79-9.11-8.48-9.11-8.48    s21.34-109.74,44.8-126.08C880.09,610.23,902.07,649.43,902.07,649.43z"/>
		<path class="st3" d="M739.03,595.84c0,0,115.36,14.72,126.3,39.6c11.65,26.5-8.97,26.01-37.28,31.06    c-28.3,5.05-140.2,2.59-141.78-38.03C683.92,567.37,739.03,595.84,739.03,595.84z"/>
		<path class="st3" d="M867.84,642.25l34.88,121.08c0,0-4.98,5.62-15.3,8.02c-11.44,2.66-14.5-1.22-14.5-1.22    s-63.42-91.46-55.56-120.1C825.22,621.38,867.84,642.25,867.84,642.25z"/>
		<path class="st4" d="M838,470.83c0.86-7.86-5.23-17.28-19.1-20.27c-11.92-2.57-23.08-5.22-37.65-4.52    c-26.22,1.26-28.36,16.84-43.03,37.69c-17.89,25.44-30.92,74.3-52.17,118.39c-2.77,5.74,14.72,7.49,21.03,8.37    c71.51,9.88,99.19-12.21,101.05-20.26c2.34-10.18,2.61-26.62,9.21-42.36C823.24,533.78,836.85,481.39,838,470.83z"/>
		<g>
			<path class="st6" d="M816.62,427.03c-0.12,1.12-0.35,4.07-0.73,7.73c-0.3,2.88-0.69,6.21-1.22,9.45     c-1.18,7.3-2.99,14.16-5.72,14.44c-25.2,2.64-28.16-10.7-27.69-12.6c0-0.01,0-0.01,0-0.01c1.4-3.14,4.1-10.03,5.62-19.62     c0.02-0.1,0.03-0.19,0.05-0.28c0.88-5.7,3.13-13.06,2.68-20.42c0,0,21.7,17.19,26.26,20.67     C816.34,426.77,816.62,426.99,816.62,427.03z"/>
			<path class="st7" d="M818.87,427.51c-0.22,2.1,0.1,4.36,0.09,6.92c-0.9,0.13-1.93,0.25-3.07,0.34c-0.3,2.88-0.69,6.21-1.22,9.45     c-16.78-2.63-24.54-21.08-26.53-24.17c-0.32-0.49,0,0,0,0c10.49-1.83,20.83,4.42,27.72,6.36     C817,426.72,818.01,427.08,818.87,427.51z"/>
			<g>
				<path class="st6" d="M820.74,439.7c0,0-1.5-0.11-3.88-0.54c-0.89-0.16-1.91-0.37-3.02-0.65c-7.35-1.78-18.73-6.11-24.57-16.44      c-0.12-0.2-0.23-0.41-0.34-0.61c-0.28-0.51-0.54-1.04-0.78-1.59c-1.32-2.91-2.22-6.25-2.52-10.07      c-2.39-29.75,16.39-44.41,27.08-42.17c18.27,3.81,27.65,13.07,30.43,21.6c0.47,1.42,0.76,2.82,0.87,4.17      C844.76,402.85,838.84,441.14,820.74,439.7z"/>
			</g>
		</g>
		<path class="st4" d="M827.82,454.14c0,0,21.24,12.45,25.61,42.71c0,0-0.07,13.04-25.56,16.35    C802.38,516.51,827.82,454.14,827.82,454.14z"/>
		<path class="st6" d="M848.95,584.87c15.67,1.18,31.23,3.7,62.21-4.43l-0.98-9.32c0,0-58.52-17.51-67-12.02    c-4.62,2.99-5.87,7.5-5.46,14.32C838.07,579.51,842.86,584.41,848.95,584.87z"/>
		<path class="st6" d="M744.91,495.85c0,0,19.86,92.28,41.9,105.52c22.04,13.25,77.06,4.6,77.06,4.6l-3.32-10.57    c0,0-57.16-13.34-59.38-19.31c-2.21-5.97-17.86-84.9-29.52-88.76C760,483.46,749.34,485.45,744.91,495.85z"/>
		<path class="st4" d="M774.77,459.29c0,0-17.67,4.38-26.62,20.74c-8.95,16.37-2.04,42.81-2.04,42.81s38.12,4.54,53.64-18.28    C799.75,504.56,793.99,464.3,774.77,459.29z"/>
		<g>
			<path class="st2" d="M893.38,591l-16.71-1.27c-4.41-0.34-6.47-4.09-4.6-8.38l15.72-36.14c1.87-4.29,6.95-7.5,11.36-7.16     l16.71,1.27c4.41,0.34,6.47,4.09,4.6,8.38l-15.72,36.15C902.87,588.13,897.78,591.34,893.38,591z"/>
		</g>
		<path class="st6" d="M855.01,594.23c0,0,1.25-3.79,8.04-5.07c2.11-0.4,5.45-4.5,8.8-5.22c3.35-0.72,0.24,8.3-1.99,9.54    c-2.23,1.24-7.2,3.79-7.6,3.3C861.86,596.3,855.01,594.23,855.01,594.23z"/>
		<path class="st6" d="M854.63,606.91c0,0,10.94,2.89,18.35,0.88c7.4-2.01,18.59-12.41,15.27-14.41c-2.81-1.7-12.46,0.63-17.02,0.04    c-4.56-0.59-8.19-1.96-9.77,0.83C859.89,597.04,854.63,606.91,854.63,606.91z"/>
		<path class="st6" d="M913.5,573.88c0.04,3.73-1.19,11.19-3.76,12.06c-2.33,0.79-7.77-3.17-9.25-6.12    c-3.69-7.37,0.96-9.01,5.18-9.45C909.11,570.01,913.43,567.75,913.5,573.88z"/>
		<path class="st5" d="M853.18,387.95c0,0-24.73,5.47-32.31-12.18c0,0-18.81,20.07-42.39,13.05c0,0-1.01-31.11,16.9-30.91    c17.91,0.2,36.97-12.1,45.96,0.84C850.32,371.7,853.18,387.95,853.18,387.95z"/>
	</g>
	<g>
		<path class="st2" d="M556.47,289.67c0.54-12.64-1.37-25.12-7.18-36.89c-5-10.12-17.36-15.87-28.63-15.88    c-35.8-0.04-40.35,46.01-63.14,63.78c-6.83,5.33-14.46,9.69-20.97,15.38c-0.1,3.84,0.51,7.62,1.72,11.07    c7.03,18.63,24.97,29.18,42.21,38.67c15.58,8.36,32.17,11.93,49.06,12.7c6.29-12.71,10.73-26.79,15.57-39.92    C550.9,322.85,555.76,306.47,556.47,289.67z"/>
		<path class="st6" d="M657.56,838.96c0,0-1.47,26.21-1.48,26.27c-0.54,3.33-2.67,11.55-2.67,14.58c0,11.37,64.69-3.93,53.47-8.97    c-1.02-0.46-23.23-7.62-23.56-11.48c-0.52-5.96-1.48-24.39-1.48-24.39L657.56,838.96z"/>
		<path class="st3" d="M684.43,874.83L684.43,874.83c0.14-0.55,0.33-1.08,0.59-1.58c1.18-2.27,2.53-4.37,3.74-6.08    c1.86-2.64,5.21-3.78,8.28-2.77c22.16,7.3,41.89,16.34,35.35,18.31c-17.72,5.35-80.74,0.18-80.74,0.18s-0.41-2.52,9.13-2.52h16.55    C680.69,880.37,683.61,878.09,684.43,874.83z"/>
		<path class="st6" d="M588.32,838.96c0,0-1.47,26.21-1.48,26.27c-0.54,3.33-2.67,11.55-2.67,14.58c0,11.37,64.69-3.93,53.47-8.97    c-1.02-0.46-23.23-7.62-23.56-11.48c-0.52-5.96-1.48-24.39-1.48-24.39L588.32,838.96z"/>
		<path class="st3" d="M615.18,874.83L615.18,874.83c0.14-0.55,0.33-1.08,0.59-1.58c1.18-2.27,2.53-4.37,3.74-6.08    c1.86-2.64,5.21-3.78,8.28-2.77c22.16,7.3,41.89,16.34,35.35,18.31c-17.72,5.35-80.74,0.18-80.74,0.18s-0.41-2.52,9.13-2.52h16.55    C611.44,880.37,614.37,878.09,615.18,874.83z"/>
		<path class="st2" d="M523.14,580.66l106.17-2.67c0,0,48-2.85,55.09,15.5c7.09,18.35-1.04,254.28-1.04,254.28    s-25.72,5.03-26.99,3.5l-25.05-140.36c-2.76-11.88-3.48-24.36-2.1-36.79l3.63-32.93l-43.88,3.82c0,0-49.65,0.61-65.53-17.35    C507.57,609.7,523.14,580.66,523.14,580.66z"/>
		<path class="st2" d="M441.56,568.49l122.51,6.44c0,0,52.71,3.87,60.65,22.42c7.93,18.55-8.07,257.48-8.07,257.48    s-30.63,2.33-30.55,0.93c0.09-1.67-11.34-109.23-17.97-143.26c-2.1-10.8-2.76-21.88-1.95-32.94l3.3-25.99    c0,0-98.93,3.7-114.99-3.8C410.22,629.13,441.56,568.49,441.56,568.49z"/>
		<polygon class="st5" points="569.84,427.69 535.39,429.55 535.39,465.59 570.66,463.02   "/>
		<path class="st4" d="M538.68,447c0,0-29.93-21.87-38.98-37.54c-9.05-15.66,6.16-5.47,21.7-9.59c5.88-1.56,4.4-36.04,15.52-24.83    c18.25,18.39,33.15,54.9,33.15,54.9L538.68,447z"/>
		<path class="st4" d="M494.35,359.21c0,0-33.24-8.16-49.53,9.4c-10.99,11.84-10.99,169.22-10.77,212.84    c0.03,6.09,5.24,10.84,11.3,10.31c23.53-2.03,77.49-8.34,97.54-24.57c3.63-2.94,4.86-7.96,2.98-12.24    c-7.48-17.03-25.99-67.36,1.15-97.51c14.31-15.9-5.83-76.63-9.73-82.24C533.39,369.6,494.35,359.21,494.35,359.21z"/>
		<path class="st6" d="M493.72,313.73c0,0-0.17,0.94-0.46,2.55c-1.43,7.7-6.94,33.25-10.67,40.28c-4.5,8.49,15.41,35.56,34.56,32.26    c5.7-0.98-4.82-24.88-4.31-27.41c0.97-4.84,2.28-11.45,3.62-18.23c0.76-3.82,1.53-7.7,2.25-11.34    c2.05-10.35,3.72-18.82,3.72-18.82L493.72,313.73z"/>
		<path class="st7" d="M493.03,317.56c0.3-1.61,0.46-2.55,0.46-2.55l28.71-0.71c0,0-1.67,8.47-3.72,18.82    c-0.72,3.62-1.48,7.48-2.23,11.28c-4.43-0.65-9.06-2.8-13.71-6.86c-5.06-4.42-8.38-9.74-10.38-15.41    C492.51,320.31,492.81,318.75,493.03,317.56z"/>
		<path class="st6" d="M583.03,636.62c3.39,2.75,13.72,5.12,13.72,5.12c-1.25,12.02-10.41,41-10.41,41s-4.12-1.8-4.56-5.25    s-2.57-19.23-8.12-23.75c-1.45-1.18-17.52-14.42-30.56-26.92c4.2-5.13,17.97-6.7,21.44-12.28    C572.03,620.88,581.91,635.71,583.03,636.62z"/>
		<path class="st4" d="M587.5,638.1c0,0-5.88,23.81-7.64,26.87c-1.44,2.49,2.37,25.17,5.7,24.37c3.33-0.8,19.06-41.58,17.95-45.79    C602.4,639.33,587.5,638.1,587.5,638.1z"/>
		<path class="st6" d="M553.32,666.24c1.44,3.99,9.17,11.26,9.17,11.26c-7.77,9.14-31.88,28-31.88,28s-2.6-3.6-1.08-6.63    c1.52-3.03,9.23-21.9,6.87-28.45c-0.61-1.71-5.12-14.4-9.35-21.58c6.52-2.01,12.92-5.09,19.06-7.84    C549.15,650.03,552.84,664.92,553.32,666.24z"/>
		<path class="st3" d="M556.01,530.35c0,0-44.63,44.07-49.18,52.57c-3.4,6.35,17.2,71.66,17.2,71.66s19.36-1.47,27.46-9.28    c0,0-10.25-45.57-8.12-47.62c2.13-2.05,53.12-31.63,53.12-31.63l-6.33-27L556.01,530.35z"/>
		<path class="st3" d="M606.86,511.56c0,0-16.86,24.15-25.83,29.7c-6.87,4.25-63.79,35.3-60.11,53.09    c2.08,10.1,30.53,46.1,30.53,46.1l22.74-18.94c0,0-14.17-16.76-13.61-19.34c0.56-2.59,52.22-11.89,64.34-24.12    c12.12-12.24,3.19-46.06,3.19-46.06L606.86,511.56z"/>
		<path class="st5" d="M623.79,474.43c-5.28-32.63-13.03-42.19-13.03-42.19c-7.12-0.67-20.17-0.95-20.17-0.95s-13.65-2.1-22.23-2.9    c-5.67-0.53-35.51,107-23.24,109.63c25.63,5.5,81.42,8.24,81.42,8.24s8.59-6.82,3.29-30.41    C625.1,494.77,623.79,482.1,623.79,474.43z"/>
		<path class="st4" d="M555.98,670.49c0,0-19.34,17.65-22.85,19.35c-2.85,1.39-9.45,22.27-5.82,23.42    c3.63,1.15,39.54-24.73,41.01-29.05C569.8,679.9,555.98,670.49,555.98,670.49z"/>
		<path class="st6" d="M579.39,416.09c0,0,0.49,16.34-1.04,17.87c-1.53,1.53-3.68,4.08-1.42,7.98c2.26,3.9,12.05,1.41,16.62-0.82    c4.38-2.14,7.21-6.12,7.21-6.12l-2.29-25.88L579.39,416.09z"/>
		<path class="st7" d="M585.91,422.86c3.15-1.1,8.64-3.23,12.88-10.12l-0.32-3.62l-19.08,6.97c0,0,0.12,3.99,0.06,8.2    C582.12,424.19,584.41,423.39,585.91,422.86z"/>
		<path class="st6" d="M608.06,396.6c0,0,6.5-9.88,11.58-4.21c5.08,5.67-8.76,18.2-13.64,14.64    C601.13,403.46,608.06,396.6,608.06,396.6z"/>
		<path class="st6" d="M608.07,351.77c0,0-9.65-6-19.14-1.35c-9.49,4.65-27.77,23.16-28.38,43.03    c-0.61,19.87,12.11,22.41,17.36,23.46c5.24,1.05,15.82,2.75,28.44-8.69C618.99,396.78,634.46,363.41,608.07,351.77z"/>
		<path class="st6" d="M446.28,444.21l43.5-19.91c0,0,12.52,46.15,13.74,49.11c0,0,59.79,4.49,83.64,3.67l7.15,17.85    c-4.62,0.28-8.48,0.16-10.73,0.39c-4.42,0.46-74.78,8.74-74.78,8.74s-26.78,0.61-31.09-2.25    C465.93,494.01,446.28,444.21,446.28,444.21z"/>
		<path class="st4" d="M441.02,456.58c0,0-5.59-43.6-6.08-62.83c-0.48-19.23,18.96-39.94,35.42-35.57    c16.46,4.36,35.78,76.35,35.78,76.35L441.02,456.58z"/>
		<g>
			<g>
				<path class="st6" d="M507.27,260.28c-0.78-0.54-22.16,41.19-13.84,56.54c8.32,15.34,29.7,25.16,40.26,17.48      c11.67-8.5,23.66-56.99,9.05-74.33C528.11,242.62,507.27,260.28,507.27,260.28z"/>
			</g>
		</g>
		<path class="st6" d="M631,479.13c-3.23,1.5-9.53,4.31-9.74,3.56c-0.18-0.65,4.21-2.56,9.17-5.69c-0.39-1.43-0.79-2.93-1.21-4.46    c-1.25,0.64-2.52,1.1-3.62,1.68c-3.27,1.72-5.63,3.02-5.63,2.84c0-0.23-0.89-0.37,0.71-1.61c1.62-1.25,5.28-3,7.98-4.96    c-0.42-1.53-0.84-3.08-1.25-4.6c-0.31,0.25-0.49,0.41-0.49,0.41s-8.25,4.22-8.88,3c-0.26-0.5,4.23-3.57,8.3-7.35    c-0.5-1.82-0.97-3.54-1.4-5.09c-0.68,0.55-1.33,1.08-1.73,1.36c-1.31,0.94-5.46,3.46-5.46,3.46s-14.85,8.04-15.35,6.84    c-0.5-1.2-0.6-4.77,0.14-5.61c0.74-0.83,2.9-1.6,3.65-2.43c0.74-0.83,1.01-2.6,0.06-3.65c-0.94-1.05-6.07,1.5-6.07,1.5    s-4.15,2.11-5.9,4.88c-6.06,9.6-6.31,12.66-7.12,13.87l6.79,17.87c3.22-0.36,9.96-1.14,14.63-1.81    c6.34-0.91,11.89-4.71,13.63-5.25c0.22-0.07,4.53-1.71,9.76-5.14C631.68,481.65,631.35,480.43,631,479.13z"/>
		<path class="st6" d="M606.78,481.01c0.81,3.43,7.46,13.29,8.03,16.67c0.1,0.59-0.19,1.16-0.72,1.44    c-5.04,2.63-31.16,16.22-43.58,21.44c-0.18,0.05-0.35,0.1-0.53,0.15c-0.3,0.08-0.62,0.28-0.92,0.03c-1.35-1.12-6.29-4.52-8.47-5.9    c-0.6-0.38-2.44-1.74-2.44-1.74c-0.7-0.7-1.57-0.7-2.32-0.48c-0.94,0.28-1.25,1.46-0.62,2.2l0.94,1.12    c0.63,0.75,0.55,1.89-0.17,2.55l-0.01,0.01c-0.73,0.67-1.65,1.05-2.6,1.45c-1.24,0.51-2.39,1.43-3.32,2.42    c-0.91,0.96-0.93,2.24-0.09,3.4c0.51,0.71,1.26,1.34,1.51,2.13c0.43,1.36,7.61,11.13,9.96,10.7c1.17-0.22,6.09-3.02,7.81-4.43    c1.25-1.02,2.7-1.73,4.11-2.1c0.31-0.08,0.61-0.19,0.91-0.31l0,0c10.24-3.36,44.42-13.91,45.67-14.3    c0.03-0.01,0.04-0.01,0.07-0.02c0.81-0.31,22.38-10.19,22.86-13.3c0.43-2.77-7.11-25.24-8.55-31.45    c-0.18-0.79-4.78,1.17-5.55,1.43l-16.67,5.48C611.39,479.8,606.62,480.31,606.78,481.01z"/>
		<path class="st5" d="M638.25,477.67c0,0-26.65,7.14-33.27,6.11c0,0-5.87-33.23-6.16-35.3c-1.34-9.38,3.53-14.42,7.62-16.27    C625.21,423.71,638.25,477.67,638.25,477.67z"/>
		<path class="st2" d="M549.81,260.48c0,0-22.05,27.8-36.18,23.65c-14.12-4.15-23.85,20.67-23.85,20.67s7.53-46.13,22.26-54.06    C532.71,239.61,549.81,260.48,549.81,260.48z"/>
		<g>
			<path class="st2" d="M598.23,414.35c0,0,6.7-7.49,8.33-12.31c0,0,10.23-5.65,7.25-9.38s-7.19,0.38-7.66-0.97     c-0.47-1.36,5.21-18.58,0.29-20.05c-4.92-1.47-24.59-3.46-29.41-13.27c-4.83-9.81,24.55-27.63,51.67-4.41     C655.81,377.16,634.62,409.27,598.23,414.35z"/>
		</g>
	</g>
</g>
</svg>